<?xml version="1.0" encoding="utf-8"?>
<!-- Generator: Adobe Illustrator 15.1.0, SVG Export Plug-In . SVG Version: 6.00 Build 0)  -->
<!DOCTYPE svg PUBLIC "-//W3C//DTD SVG 1.1//EN" "http://www.w3.org/Graphics/SVG/1.1/DTD/svg11.dtd">
<svg version="1.1" id="Layer_1" xmlns="http://www.w3.org/2000/svg" xmlns:xlink="http://www.w3.org/1999/xlink" x="0px" y="0px"
	 width="324px" height="540px" viewBox="0 0 324 540" enable-background="new 0 0 324 540" xml:space="preserve">
<polygon fill="none" stroke="#000000" stroke-miterlimit="10" points="36.333,91.243 22.553,83.288 22.554,67.378 36.333,59.423 
	50.112,67.377 50.112,83.288 "/>
<polygon fill="none" stroke="#000000" stroke-miterlimit="10" points="50.112,67.377 58.068,53.574 66.023,67.377 "/>
<polygon fill="none" stroke="#000000" stroke-miterlimit="10" points="28.377,45.645 44.31,45.633 36.333,59.423 "/>
<polygon fill="none" stroke="#000000" stroke-miterlimit="10" points="36.333,91.243 44.309,105.034 28.377,105.021 "/>
<polygon fill="none" stroke="#000000" stroke-miterlimit="10" points="50.112,83.288 66.044,83.288 58.058,97.073 "/>
<rect x="50.112" y="67.377" fill="none" stroke="#000000" stroke-miterlimit="10" width="15.911" height="15.91"/>
<rect x="39.245" y="48.556" transform="matrix(-0.5 0.866 -0.866 -0.5 119.7406 43.8909)" fill="none" stroke="#000000" stroke-miterlimit="10" width="15.91" height="15.911"/>
<rect x="39.245" y="86.199" transform="matrix(0.5 0.866 -0.866 0.5 105.1393 6.2006)" fill="none" stroke="#000000" stroke-miterlimit="10" width="15.91" height="15.911"/>
<polygon fill="none" stroke="#000000" stroke-miterlimit="10" points="58.087,128.899 44.308,120.944 44.309,105.034 58.088,97.079 
	71.866,105.033 71.866,120.943 "/>
<rect x="28.398" y="105.034" fill="none" stroke="#000000" stroke-miterlimit="10" width="15.911" height="15.91"/>
<rect x="60.97" y="86.206" transform="matrix(-0.5 0.866 -0.866 -0.5 184.934 81.5517)" fill="none" stroke="#000000" stroke-miterlimit="10" width="15.91" height="15.911"/>
<rect x="60.98" y="48.53" transform="matrix(0.5 0.866 -0.866 0.5 83.3847 -31.4568)" fill="none" stroke="#000000" stroke-miterlimit="10" width="15.91" height="15.911"/>
<line fill="none" x1="22.554" y1="67.378" x2="66.023" y2="67.377"/>
<line fill="none" x1="44.31" y1="45.633" x2="44.308" y2="120.944"/>
</svg>
