<?xml version="1.0" encoding="utf-8"?>
<!-- Generator: Adobe Illustrator 15.1.0, SVG Export Plug-In . SVG Version: 6.00 Build 0)  -->
<!DOCTYPE svg PUBLIC "-//W3C//DTD SVG 1.1//EN" "http://www.w3.org/Graphics/SVG/1.1/DTD/svg11.dtd">
<svg version="1.1" id="Layer_1" xmlns="http://www.w3.org/2000/svg" xmlns:xlink="http://www.w3.org/1999/xlink" x="0px" y="0px"
	 width="324px" height="540px" viewBox="0 0 324 540" enable-background="new 0 0 324 540" xml:space="preserve">
<polygon fill="none" stroke="#000000" stroke-miterlimit="10" points="32.683,92.328 41.333,77.345 49.984,92.328 "/>
<polygon fill="none" stroke="#000000" stroke-miterlimit="10" points="32.683,92.328 41.333,107.312 49.984,92.328 "/>
<polygon fill="none" stroke="#000000" stroke-miterlimit="10" points="64.967,83.678 79.951,92.328 64.967,100.979 "/>
<polygon fill="none" stroke="#000000" stroke-miterlimit="10" points="64.967,83.678 49.984,92.328 64.967,100.979 "/>
<rect x="44.501" y="71.861" transform="matrix(0.5001 0.866 -0.866 0.5001 96.2949 -5.7773)" fill="none" stroke="#000000" stroke-miterlimit="10" width="17.301" height="17.301"/>
<polygon fill="none" stroke="#000000" stroke-miterlimit="10" points="73.618,115.961 64.968,100.978 56.317,115.961 "/>
<polygon fill="none" stroke="#000000" stroke-miterlimit="10" points="73.618,115.961 64.968,130.944 56.317,115.961 "/>
<polygon fill="none" stroke="#000000" stroke-miterlimit="10" points="41.334,107.311 26.351,115.961 41.334,124.611 "/>
<polygon fill="none" stroke="#000000" stroke-miterlimit="10" points="41.334,107.311 56.317,115.961 41.334,124.611 "/>
<rect x="44.5" y="95.493" transform="matrix(-0.5001 0.866 -0.866 -0.5001 169.9162 110.1941)" fill="none" stroke="#000000" stroke-miterlimit="10" width="17.301" height="17.301"/>
<rect x="68.135" y="95.493" transform="matrix(0.5001 0.866 -0.866 0.5001 128.5766 -14.4294)" fill="none" stroke="#000000" stroke-miterlimit="10" width="17.301" height="17.301"/>
<rect x="68.133" y="71.861" transform="matrix(-0.5001 0.866 -0.866 -0.5001 184.9009 54.2777)" fill="none" stroke="#000000" stroke-miterlimit="10" width="17.301" height="17.301"/>
<line fill="none" x1="32.683" y1="92.328" x2="79.951" y2="92.328"/>
<line fill="none" x1="41.333" y1="77.345" x2="41.334" y2="124.611"/>
</svg>
