<?xml version="1.0" encoding="utf-8"?>
<!-- Generator: Adobe Illustrator 15.1.0, SVG Export Plug-In . SVG Version: 6.00 Build 0)  -->
<!DOCTYPE svg PUBLIC "-//W3C//DTD SVG 1.1//EN" "http://www.w3.org/Graphics/SVG/1.1/DTD/svg11.dtd">
<svg version="1.1" id="Layer_1" xmlns="http://www.w3.org/2000/svg" xmlns:xlink="http://www.w3.org/1999/xlink" x="0px" y="0px"
	 width="324px" height="540px" viewBox="0 0 324 540" enable-background="new 0 0 324 540" xml:space="preserve">
<polygon fill="none" stroke="#000000" stroke-miterlimit="10" points="28.378,89.11 20.423,75.333 28.378,61.554 44.289,61.553 
	52.244,75.333 44.289,89.111 "/>
<polygon fill="none" stroke="#000000" stroke-miterlimit="10" points="28.378,61.554 36.334,47.751 44.289,61.554 "/>
<polygon fill="none" stroke="#000000" stroke-miterlimit="10" points="36.334,47.751 52.266,47.739 44.29,61.529 "/>
<polygon fill="none" stroke="#000000" stroke-miterlimit="10" points="52.266,47.739 60.242,61.53 44.311,61.517 "/>
<polygon fill="none" stroke="#000000" stroke-miterlimit="10" points="44.289,61.553 60.221,61.553 52.235,75.338 "/>
<polygon fill="none" stroke="#000000" stroke-miterlimit="10" points="52.286,75.333 60.242,61.53 68.197,75.333 "/>
<polygon fill="none" stroke="#000000" stroke-miterlimit="10" points="44.288,89.136 52.244,75.333 60.199,89.136 "/>
<polygon fill="none" stroke="#000000" stroke-miterlimit="10" points="52.244,75.333 68.176,75.32 60.2,89.11 "/>
<polygon fill="none" stroke="#000000" stroke-miterlimit="10" points="20.402,47.763 36.334,47.751 28.358,61.541 "/>
<polygon fill="none" stroke="#000000" stroke-miterlimit="10" points="68.217,102.902 60.262,89.125 68.217,75.346 84.128,75.345 
	92.083,89.125 84.128,102.903 "/>
<polygon fill="none" stroke="#000000" stroke-miterlimit="10" points="68.217,75.346 76.173,61.543 84.128,75.346 "/>
<polygon fill="none" stroke="#000000" stroke-miterlimit="10" points="76.173,61.543 92.105,61.531 84.129,75.321 "/>
<polygon fill="none" stroke="#000000" stroke-miterlimit="10" points="92.105,61.531 100.082,75.322 84.15,75.309 "/>
<polygon fill="none" stroke="#000000" stroke-miterlimit="10" points="84.128,75.345 100.061,75.345 92.075,89.13 "/>
<polygon fill="none" stroke="#000000" stroke-miterlimit="10" points="92.125,89.125 100.082,75.322 108.037,89.125 "/>
<polygon fill="none" stroke="#000000" stroke-miterlimit="10" points="84.127,102.928 92.083,89.125 100.039,102.928 "/>
<polygon fill="none" stroke="#000000" stroke-miterlimit="10" points="92.083,89.125 108.016,89.112 100.04,102.902 "/>
<polygon fill="none" stroke="#000000" stroke-miterlimit="10" points="60.241,61.555 76.173,61.543 68.197,75.333 "/>
<polygon fill="none" stroke="#000000" stroke-miterlimit="10" points="108.057,116.694 100.102,102.917 108.057,89.138 
	123.968,89.137 131.923,102.917 123.968,116.695 "/>
<polygon fill="none" stroke="#000000" stroke-miterlimit="10" points="108.057,89.138 116.013,75.335 123.968,89.138 "/>
<polygon fill="none" stroke="#000000" stroke-miterlimit="10" points="116.013,75.335 131.945,75.323 123.969,89.113 "/>
<polygon fill="none" stroke="#000000" stroke-miterlimit="10" points="131.945,75.323 139.921,89.114 123.99,89.101 "/>
<polygon fill="none" stroke="#000000" stroke-miterlimit="10" points="123.968,89.137 139.9,89.137 131.914,102.922 "/>
<polygon fill="none" stroke="#000000" stroke-miterlimit="10" points="131.965,102.917 139.921,89.114 147.876,102.917 "/>
<polygon fill="none" stroke="#000000" stroke-miterlimit="10" points="123.967,116.72 131.923,102.917 139.878,116.72 "/>
<polygon fill="none" stroke="#000000" stroke-miterlimit="10" points="131.923,102.917 147.855,102.904 139.879,116.694 "/>
<polygon fill="none" stroke="#000000" stroke-miterlimit="10" points="100.081,75.347 116.013,75.335 108.037,89.125 "/>
<line fill="none" x1="20.423" y1="75.333" x2="131.945" y2="75.323"/>
<line fill="none" x1="20.402" y1="47.763" x2="28.378" y2="89.11"/>
</svg>
