<?xml version="1.0" encoding="utf-8"?>
<!-- Generator: Adobe Illustrator 15.1.0, SVG Export Plug-In . SVG Version: 6.00 Build 0)  -->
<!DOCTYPE svg PUBLIC "-//W3C//DTD SVG 1.1//EN" "http://www.w3.org/Graphics/SVG/1.1/DTD/svg11.dtd">
<svg version="1.1" id="Layer_1" xmlns="http://www.w3.org/2000/svg" xmlns:xlink="http://www.w3.org/1999/xlink" x="0px" y="0px"
	 width="324px" height="540px" viewBox="0 0 324 540" enable-background="new 0 0 324 540" xml:space="preserve">
<polygon fill="none" stroke="#000000" stroke-miterlimit="10" points="28.378,89.112 20.423,75.333 28.378,61.555 44.289,61.555 
	52.244,75.333 44.289,89.112 "/>
<polygon fill="none" stroke="#000000" stroke-miterlimit="10" points="28.378,61.555 36.334,47.752 44.289,61.555 "/>
<polygon fill="none" stroke="#000000" stroke-miterlimit="10" points="44.288,61.555 60.22,61.543 52.244,75.333 "/>
<polygon fill="none" stroke="#000000" stroke-miterlimit="10" points="52.244,75.334 60.22,89.125 44.289,89.112 "/>
<polygon fill="none" stroke="#000000" stroke-miterlimit="10" points="28.357,89.112 44.289,89.112 36.303,102.897 "/>
<polygon fill="none" stroke="#000000" stroke-miterlimit="10" points="44.289,116.668 36.333,102.89 44.289,89.112 60.199,89.112 
	68.154,102.89 60.199,116.668 "/>
<line fill="none" x1="20.423" y1="75.333" x2="52.244" y2="75.333"/>
<line fill="none" x1="36.334" y1="47.752" x2="36.303" y2="102.897"/>
</svg>
