<?xml version="1.0" encoding="utf-8"?>
<!-- Generator: Adobe Illustrator 15.1.0, SVG Export Plug-In . SVG Version: 6.00 Build 0)  -->
<!DOCTYPE svg PUBLIC "-//W3C//DTD SVG 1.1//EN" "http://www.w3.org/Graphics/SVG/1.1/DTD/svg11.dtd">
<svg version="1.1" id="Layer_1" xmlns="http://www.w3.org/2000/svg" xmlns:xlink="http://www.w3.org/1999/xlink" x="0px" y="0px"
	 width="324px" height="540px" viewBox="0 0 324 540" enable-background="new 0 0 324 540" xml:space="preserve">
<polygon fill="none" stroke="#000000" stroke-miterlimit="10" points="27.745,66.881 20.375,62.625 16.119,55.255 16.119,46.745 
	20.375,39.375 27.745,35.119 36.255,35.119 43.625,39.375 47.881,46.745 47.881,55.255 43.625,62.625 36.255,66.881 "/>
<polygon fill="none" stroke="#000000" stroke-miterlimit="10" points="27.745,35.119 31.996,27.755 36.248,35.119 "/>
<polygon fill="none" stroke="#000000" stroke-miterlimit="10" points="27.745,66.881 31.996,74.245 36.248,66.881 "/>
<polygon fill="none" stroke="#000000" stroke-miterlimit="10" points="43.629,39.381 52.132,39.381 47.881,46.745 "/>
<polygon fill="none" stroke="#000000" stroke-miterlimit="10" points="43.629,62.619 47.881,55.255 52.132,62.619 "/>
<polygon fill="none" stroke="#000000" stroke-miterlimit="10" points="43.625,94.387 36.255,90.132 32,82.762 32,74.251 
	36.255,66.881 43.625,62.625 52.136,62.625 59.506,66.881 63.762,74.251 63.762,82.762 59.506,90.132 52.136,94.387 "/>
<line fill="none" x1="16.119" y1="46.745" x2="47.881" y2="46.745"/>
<line fill="none" x1="31.996" y1="27.755" x2="32" y2="82.762"/>
</svg>
