<?xml version="1.0" encoding="utf-8"?>
<!-- Generator: Adobe Illustrator 15.1.0, SVG Export Plug-In . SVG Version: 6.00 Build 0)  -->
<!DOCTYPE svg PUBLIC "-//W3C//DTD SVG 1.1//EN" "http://www.w3.org/Graphics/SVG/1.1/DTD/svg11.dtd">
<svg version="1.1" id="Layer_1" xmlns="http://www.w3.org/2000/svg" xmlns:xlink="http://www.w3.org/1999/xlink" x="0px" y="0px"
	 width="324px" height="540px" viewBox="0 0 324 540" enable-background="new 0 0 324 540" xml:space="preserve">
<polygon fill="none" stroke="#000000" stroke-miterlimit="10" points="24.022,105.144 15.002,99.936 9.791,90.915 9.792,80.499 
	15.001,71.478 24.022,66.269 34.438,66.268 43.458,71.477 48.667,80.498 48.667,90.914 43.458,99.935 34.438,105.144 "/>
<rect x="48.667" y="80.498" fill="none" stroke="#000000" stroke-miterlimit="10" width="10.416" height="10.416"/>
<rect x="36.346" y="101.839" transform="matrix(0.866 -0.5 0.5 0.866 -47.9564 35.1185)" fill="none" stroke="#000000" stroke-miterlimit="10" width="10.416" height="10.416"/>
<rect x="36.344" y="59.154" transform="matrix(-0.866 -0.5 0.5 -0.866 45.3563 140.8778)" fill="none" stroke="#000000" stroke-miterlimit="10" width="10.416" height="10.416"/>
<polygon fill="none" stroke="#000000" stroke-miterlimit="10" points="48.667,108.953 43.459,99.933 48.667,90.914 59.082,90.914 
	64.289,99.933 59.082,108.953 "/>
<polygon fill="none" stroke="#000000" stroke-miterlimit="10" points="48.667,80.498 43.459,71.478 48.667,62.459 59.082,62.459 
	64.289,71.478 59.082,80.498 "/>
<line fill="none" x1="9.792" y1="80.499" x2="59.083" y2="80.498"/>
<polygon fill="none" stroke="#000000" stroke-miterlimit="10" points="48.668,147.828 39.648,142.62 34.437,133.599 34.438,123.183 
	39.647,114.162 48.668,108.953 59.084,108.952 68.104,114.161 73.313,123.182 73.313,133.598 68.104,142.619 59.084,147.828 "/>
<rect x="73.313" y="123.182" fill="none" stroke="#000000" stroke-miterlimit="10" width="10.416" height="10.416"/>
<rect x="60.992" y="144.523" transform="matrix(0.866 -0.5 0.5 0.866 -65.9965 53.1602)" fill="none" stroke="#000000" stroke-miterlimit="10" width="10.416" height="10.416"/>
<rect x="60.99" y="101.838" transform="matrix(-0.866 -0.5 0.5 -0.866 70.0043 232.8504)" fill="none" stroke="#000000" stroke-miterlimit="10" width="10.416" height="10.416"/>
<polygon fill="none" stroke="#000000" stroke-miterlimit="10" points="73.313,151.637 68.105,142.617 73.313,133.598 
	83.728,133.598 88.935,142.617 83.728,151.637 "/>
<polygon fill="none" stroke="#000000" stroke-miterlimit="10" points="73.313,123.182 68.105,114.162 73.313,105.143 
	83.728,105.143 88.935,114.162 83.728,123.182 "/>
<line fill="none" x1="39.646" y1="57.248" x2="39.648" y2="142.62"/>
</svg>
